<?xml version="1.0" encoding="utf-8"?>
<!-- Generator: Adobe Illustrator 24.0.2, SVG Export Plug-In . SVG Version: 6.00 Build 0)  -->
<svg version="1.1" id="Lager_1" xmlns="http://www.w3.org/2000/svg" xmlns:xlink="http://www.w3.org/1999/xlink" x="0px" y="0px"
	 viewBox="0 0 287.6 53.6" style="enable-background:new 0 0 287.6 53.6;" xml:space="preserve">
<style type="text/css">
	.st0{fill:#020203;}
	.st1{fill:#FFFFFF;stroke:#FFFFFF;stroke-width:4;stroke-miterlimit:10;}
	.st2{font-family:'ROCKETWILDNESS';}
	.st3{font-size:33.7181px;}
	.st4{fill:#E6E34E;stroke:#020203;stroke-width:0.25;stroke-miterlimit:10;}
	.st5{fill:#FFFFFF;stroke:#FFFFFF;stroke-miterlimit:10;}
	.st6{font-size:19.9084px;}
</style>
<path class="st0" d="M286.1,5.6c-0.8-0.8-1.4-0.9-7.4-0.5c-31.4,1.5-57.1,2.5-72.4,2.9c-6.2,0.1-12.5,0.4-14,0.5
	c-0.5,0-1,0.1-1.3,0.1c-1.5,0.2-3,0.2-4.5,0c-0.2,0-0.4,0-0.6,0c-0.5,0.1-1.1,0.2-1.6,0.3c-0.3,0-0.6,0-0.9-0.1l-0.2,0.1h-41
	c-44.5,0-71.5-0.8-101.7-3C27,4.8,24.1,4.7,21.6,5.3C13.1,7.2,6.1,12.8,2.3,20.9C1,23.8,0,27.5,0,29.9c0,3.4,1.9,8.4,4.6,12.3
	c3.1,4.4,8.3,8.4,13,10.1c4.2,1.5,7.9,1.7,16.5,0.8c36.1-3.5,68.5-4.8,116.8-4.5l33.4,0.2l0.2,0.2c0,0,0.1,0,0.1,0
	c0.1,0,0.3,0,0.4,0c0.1,0,0.1,0,0.2,0c0.2,0,0.4-0.1,0.5-0.1c2.1-0.1,4.2,0.3,6.4,0.5c0.2,0,0.5,0,0.7,0c0.6,0,1.1,0.2,1.7,0.2
	c0.1-0.1,0.8-0.2,2.4-0.2c6.2-0.1,42.9,1.7,78.6,3.8c9.9,0.6,10.6,0.5,11.5-1.5c0.4-0.9,0.4-2.1,0.5-21.5
	C287.6,7,287.6,7.1,286.1,5.6z"/>
<text transform="matrix(1.2311 0 0 1 19.8389 38.7213)" class="st1 st2 st3">THOR</text>
<path class="st4" d="M198,21.9c-4.4-2.7-8.2-6.6-10.8-10.9c-2.8,1.6-5.5,3.2-8.1,5c-7.5,5.2-15.6,9.5-23.8,13.7
	c4.2,2.4,8.7,4.4,13.2,6c-10.1,1.7-17.9,8.2-27.1,11.3c0,0.1,0.1,0.1,0.1,0.2c0.3-0.1,0.6-0.2,1-0.2c13.2-3.1,26.4-6.1,39.6-9.2
	c-4.5-2.1-8.9-4.6-13.1-7.3C178,26.5,187.8,23.6,198,21.9z"/>
<text transform="matrix(1 0 0 1 196.8934 37.315)" class="st5 st2 st6">SKI</text>
</svg>
